<svg role="img" viewBox="0 0 24 24" xmlns="http://www.w3.org/2000/svg"><title>GeoGebra</title><path d="M24 9.032a2.785 2.785 0 0 0-3.133-2.778c-1.514-2.19-4.046-3.406-6.839-3.542a2.795 2.795 0 0 0-5.301 1.043 12.711 12.711 0 0 0-1.406.73 12.249 12.249 0 0 0-3.664 3.406 2.795 2.795 0 0 0-1.88 5.262 7.89 7.89 0 0 0 1.119 4.571 7.654 7.654 0 0 0 1.094 1.397 2.795 2.795 0 0 0 5.007 2.416 11.495 11.495 0 0 0 6.367-1 2.795 2.795 0 0 0 4.41-3.372 10.478 10.478 0 0 0 2.409-5.518A2.798 2.798 0 0 0 24 9.032zM9.389 19.649a2.79 2.79 0 0 0-4.177-2.01 5.839 5.839 0 0 1-.73-.958 6.05 6.05 0 0 1-.868-3.345A2.79 2.79 0 0 0 5.17 8.91a10.32 10.32 0 0 1 3.062-2.84 10.777 10.777 0 0 1 .988-.532 2.795 2.795 0 0 0 5.014-.944c1.99.185 3.759 1.068 4.866 2.586a2.793 2.793 0 0 0 1.085 4.46 8.563 8.563 0 0 1-1.946 4.293 2.795 2.795 0 0 0-3.672 2.654v.173a9.595 9.595 0 0 1-5.179.888z"/></svg>